<?xml version="1.0" encoding="utf-8"?>
<!-- Generator: Adobe Illustrator 13.0.0, SVG Export Plug-In . SVG Version: 6.00 Build 14948)  -->
<!DOCTYPE svg PUBLIC "-//W3C//DTD SVG 1.1//EN" "http://www.w3.org/Graphics/SVG/1.1/DTD/svg11.dtd">
<svg version="1.1" id="Layer_1" xmlns="http://www.w3.org/2000/svg" xmlns:xlink="http://www.w3.org/1999/xlink" x="0px" y="0px"
	 width="778.739px" height="149.208px" viewBox="0 0 778.739 149.208" enable-background="new 0 0 778.739 149.208"
	 xml:space="preserve">
<text transform="matrix(1 0 0 1 317.2144 103.6841)" display="none"><tspan x="0" y="0" display="inline" fill="#B4B4B6" font-family="'advent-Bd1'" font-size="101.865" letter-spacing="-3">T</tspan><tspan x="40.44" y="0" display="inline" fill="#B4B4B6" font-family="'advent-Bd1'" font-size="101.865" letter-spacing="-2">r</tspan><tspan x="71.406" y="0" display="inline" fill="#B4B4B6" font-family="'advent-Bd1'" font-size="101.865">adeRiser</tspan></text>
<text transform="matrix(1 0 0 1 197.2144 113.6841)"><tspan x="0" y="0" fill="#E8E8E8" font-family="'GillSans'" font-size="130.87" letter-spacing="-4">T</tspan><tspan x="74.596" y="0" fill="#E8E8E8" font-family="'GillSans'" font-size="130.87" letter-spacing="-2">r</tspan><tspan x="123.541" y="0" fill="#E8E8E8" font-family="'GillSans'" font-size="130.87">adeRiser</tspan></text>
<g>
	<defs>
		<path id="SVGID_1_" d="M67.596,82.576c-6.976,19.582,2.479,42.838,21.14,51.994c29.824,14.638,62.935,1.502,74.62-29.356
			c-7.936,12.646-20.501,21.685-35.93,24.201c-19.413,3.165-38.746-11.575-43.222-32.959c-2.336-11.155,2.623-21.642,11.44-25.818
			c-2.966-1.352-6.008-1.994-8.957-1.994C78.339,68.642,70.726,73.792,67.596,82.576"/>
	</defs>
	<clipPath id="SVGID_2_">
		<use xlink:href="#SVGID_1_"  overflow="visible"/>
	</clipPath>
	
		<linearGradient id="SVGID_3_" gradientUnits="userSpaceOnUse" x1="17.5186" y1="211.7319" x2="18.1816" y2="211.7319" gradientTransform="matrix(147.8677 0 0 -147.8677 -2525.0667 31417.248)">
		<stop  offset="0" style="stop-color:#003B94"/>
		<stop  offset="0.0505" style="stop-color:#004297"/>
		<stop  offset="0.4956" style="stop-color:#007CB0"/>
		<stop  offset="0.8249" style="stop-color:#00A0C0"/>
		<stop  offset="1" style="stop-color:#00AEC6"/>
	</linearGradient>
	<rect x="60.62" y="68.642" clip-path="url(#SVGID_2_)" fill="url(#SVGID_3_)" width="102.736" height="80.565"/>
</g>
<g>
	<defs>
		<path id="SVGID_4_" d="M157.383,92.446c-10.56,17.359-32.774,20.982-49.667,8.101c-8.812-6.72-12.443-18.544-9.435-28.52
			c-10.783,4.796-15.459,18.371-10.444,30.706c8.263,20.32,29.618,30.801,47.746,23.43c28.973-11.778,41.928-47.296,29.358-79.852
			C168.043,62.075,165.777,78.648,157.383,92.446"/>
	</defs>
	<clipPath id="SVGID_5_">
		<use xlink:href="#SVGID_4_"  overflow="visible"/>
	</clipPath>
	
		<linearGradient id="SVGID_6_" gradientUnits="userSpaceOnUse" x1="17.3491" y1="211.6987" x2="18.0125" y2="211.6987" gradientTransform="matrix(126.5386 0 0 -126.5386 -2109.4868 26878.0527)">
		<stop  offset="0" style="stop-color:#006A18"/>
		<stop  offset="0.204" style="stop-color:#228022"/>
		<stop  offset="0.5759" style="stop-color:#5BA631"/>
		<stop  offset="0.8522" style="stop-color:#7FBD3B"/>
		<stop  offset="1" style="stop-color:#8CC63F"/>
		<stop  offset="1" style="stop-color:#6BC05F"/>
		<stop  offset="1" style="stop-color:#31B696"/>
		<stop  offset="1" style="stop-color:#0EB0B9"/>
		<stop  offset="1" style="stop-color:#00AEC6"/>
	</linearGradient>
	<rect x="82.821" y="46.31" clip-path="url(#SVGID_5_)" fill="url(#SVGID_6_)" width="94.688" height="87.223"/>
</g>
<g>
	<defs>
		<path id="SVGID_7_" d="M152.788,41.045c4.478,21.384-7.607,41.25-27.02,44.415c-10.128,1.652-20.219-4.584-24.784-14.515
			c-3.88,11.96,1.951,25.925,13.278,31.483c18.661,9.158,39.406,0.724,46.382-18.856c11.15-31.296-3.64-68.387-33.102-83.572
			C139.868,9.648,149.228,24.048,152.788,41.045"/>
	</defs>
	<clipPath id="SVGID_8_">
		<use xlink:href="#SVGID_7_"  overflow="visible"/>
	</clipPath>
	
		<linearGradient id="SVGID_9_" gradientUnits="userSpaceOnUse" x1="17.0762" y1="211.5513" x2="17.7396" y2="211.5513" gradientTransform="matrix(97.3774 0 0 -97.3774 -1562.9777 20656.0508)">
		<stop  offset="0" style="stop-color:#FFBE2A"/>
		<stop  offset="0.3946" style="stop-color:#FDCB22"/>
		<stop  offset="1" style="stop-color:#F9E710"/>
	</linearGradient>
	<rect x="97.104" clip-path="url(#SVGID_8_)" fill="url(#SVGID_9_)" width="74.691" height="111.586"/>
</g>
<g>
	<defs>
		<path id="SVGID_10_" d="M19.244,45.978c11.099-14.066,27.67-25.15,47.235-30.018c24.617-6.124,47.498,6.002,51.159,27.117
			c1.909,11.013-5.26,22.436-16.692,28.005c13.774,3.578,29.847-3.611,36.237-16.35c10.529-20.986,0.801-43.26-21.749-49.802
			c-6.861-1.99-13.966-2.937-21.089-2.938C64.051,1.991,33.379,19.118,19.244,45.978"/>
	</defs>
	<clipPath id="SVGID_11_">
		<use xlink:href="#SVGID_10_"  overflow="visible"/>
	</clipPath>
	
		<linearGradient id="SVGID_12_" gradientUnits="userSpaceOnUse" x1="17.7466" y1="211.5366" x2="18.4098" y2="211.5366" gradientTransform="matrix(184.2515 0 0 -184.2515 -3250.7009 39014.3359)">
		<stop  offset="0" style="stop-color:#00AEC6"/>
		<stop  offset="0" style="stop-color:#0EB0B9"/>
		<stop  offset="0" style="stop-color:#31B696"/>
		<stop  offset="0" style="stop-color:#6BC05F"/>
		<stop  offset="0" style="stop-color:#8CC63F"/>
		<stop  offset="0.1478" style="stop-color:#7FBD3B"/>
		<stop  offset="0.4241" style="stop-color:#5BA631"/>
		<stop  offset="0.796" style="stop-color:#228022"/>
		<stop  offset="1" style="stop-color:#006A18"/>
	</linearGradient>
	<rect x="19.244" y="1.991" clip-path="url(#SVGID_11_)" fill="url(#SVGID_12_)" width="128.468" height="72.668"/>
</g>
<g>
	<defs>
		<path id="SVGID_13_" d="M56.855,20.589C19.473,36.913,0,75.023,12.783,106.306c-2.453-15.595,1.899-32.813,13.677-48.121
			c14.818-19.259,42.986-26.267,62.98-15.668c10.43,5.527,13.901,17.029,9.223,27.64c13.951-6.494,21.046-21.02,15.888-32.834
			C108.63,23.766,94.312,16.02,78.264,16.019C71.272,16.019,63.954,17.488,56.855,20.589"/>
	</defs>
	<clipPath id="SVGID_14_">
		<use xlink:href="#SVGID_13_"  overflow="visible"/>
	</clipPath>
	
		<linearGradient id="SVGID_15_" gradientUnits="userSpaceOnUse" x1="17.7402" y1="211.6118" x2="18.4034" y2="211.6118" gradientTransform="matrix(161.9131 0 0 -161.9131 -2863.4822 34323.8164)">
		<stop  offset="0" style="stop-color:#00AEC6"/>
		<stop  offset="0.1751" style="stop-color:#00A0C0"/>
		<stop  offset="0.5044" style="stop-color:#007CB0"/>
		<stop  offset="0.9495" style="stop-color:#004297"/>
		<stop  offset="1" style="stop-color:#003B94"/>
	</linearGradient>
	<rect y="16.019" clip-path="url(#SVGID_14_)" fill="url(#SVGID_15_)" width="119.71" height="90.287"/>
</g>
</svg>
