<?xml version="1.0" encoding="utf-8"?>
<!-- Generator: Adobe Illustrator 13.0.0, SVG Export Plug-In . SVG Version: 6.00 Build 14948)  -->
<!DOCTYPE svg PUBLIC "-//W3C//DTD SVG 1.1//EN" "http://www.w3.org/Graphics/SVG/1.1/DTD/svg11.dtd">
<svg version="1.1" id="Layer_1" xmlns="http://www.w3.org/2000/svg" xmlns:xlink="http://www.w3.org/1999/xlink" x="0px" y="0px"
	 width="733.679px" height="152.569px" viewBox="0 0 733.679 152.569" enable-background="new 0 0 733.679 152.569"
	 xml:space="preserve">
<text transform="matrix(1 0 0 1 279.2144 105.3652)" display="none"><tspan x="0" y="0" display="inline" fill="#B4B4B6" font-family="'advent-Bd1'" font-size="101.865" letter-spacing="-3">T</tspan><tspan x="40.44" y="0" display="inline" fill="#B4B4B6" font-family="'advent-Bd1'" font-size="101.865" letter-spacing="-2">r</tspan><tspan x="71.406" y="0" display="inline" fill="#B4B4B6" font-family="'advent-Bd1'" font-size="101.865">adeRiser</tspan></text>
<text transform="matrix(1 0 0 1 199.2144 115.3652)"><tspan x="0" y="0" fill="#E8E8E8" font-family="'advent-Bd1'" font-size="130.87" letter-spacing="-4">T</tspan><tspan x="51.956" y="0" fill="#E8E8E8" font-family="'advent-Bd1'" font-size="130.87" letter-spacing="-2">r</tspan><tspan x="91.738" y="0" fill="#E8E8E8" font-family="'advent-Bd1'" font-size="130.87">adeRiser</tspan></text>
<g>
	<defs>
		<path id="SVGID_1_" d="M69.119,84.437c-7.133,20.023,2.535,43.803,21.616,53.166c30.496,14.967,64.354,1.535,76.302-30.019
			c-8.115,12.931-20.963,22.174-36.74,24.747c-19.85,3.236-39.619-11.836-44.196-33.702c-2.389-11.406,2.682-22.129,11.698-26.4
			c-3.033-1.382-6.143-2.039-9.158-2.039C80.104,70.189,72.319,75.456,69.119,84.437"/>
	</defs>
	<clipPath id="SVGID_2_">
		<use xlink:href="#SVGID_1_"  overflow="visible"/>
	</clipPath>
	
		<linearGradient id="SVGID_3_" gradientUnits="userSpaceOnUse" x1="-20.2144" y1="213.4082" x2="-19.5364" y2="213.4082" gradientTransform="matrix(147.8677 0 0 -147.8677 3055.9058 31667.5195)">
		<stop  offset="0" style="stop-color:#003B94"/>
		<stop  offset="0.0505" style="stop-color:#004297"/>
		<stop  offset="0.4956" style="stop-color:#007CB0"/>
		<stop  offset="0.8249" style="stop-color:#00A0C0"/>
		<stop  offset="1" style="stop-color:#00AEC6"/>
	</linearGradient>
	<rect x="61.986" y="70.189" clip-path="url(#SVGID_2_)" fill="url(#SVGID_3_)" width="105.051" height="82.38"/>
</g>
<g>
	<defs>
		<path id="SVGID_4_" d="M160.929,94.529c-10.798,17.75-33.513,21.455-50.787,8.283c-9.011-6.871-12.724-18.962-9.647-29.163
			c-11.026,4.904-15.808,18.784-10.68,31.397c8.449,20.778,30.285,31.495,48.821,23.958c29.626-12.044,42.873-48.362,30.02-81.652
			C171.83,63.474,169.513,80.42,160.929,94.529"/>
	</defs>
	<clipPath id="SVGID_5_">
		<use xlink:href="#SVGID_4_"  overflow="visible"/>
	</clipPath>
	
		<linearGradient id="SVGID_6_" gradientUnits="userSpaceOnUse" x1="-20.335" y1="213.377" x2="-19.6569" y2="213.377" gradientTransform="matrix(126.5386 0 0 -126.5386 2660.98 27092.4648)">
		<stop  offset="0" style="stop-color:#006A18"/>
		<stop  offset="0.204" style="stop-color:#228022"/>
		<stop  offset="0.5759" style="stop-color:#5BA631"/>
		<stop  offset="0.8522" style="stop-color:#7FBD3B"/>
		<stop  offset="1" style="stop-color:#8CC63F"/>
		<stop  offset="1" style="stop-color:#6BC05F"/>
		<stop  offset="1" style="stop-color:#31B696"/>
		<stop  offset="1" style="stop-color:#0EB0B9"/>
		<stop  offset="1" style="stop-color:#00AEC6"/>
	</linearGradient>
	<rect x="84.688" y="47.353" clip-path="url(#SVGID_5_)" fill="url(#SVGID_6_)" width="96.822" height="89.189"/>
</g>
<g>
	<defs>
		<path id="SVGID_7_" d="M156.23,41.97c4.579,21.866-7.778,42.18-27.628,45.416c-10.356,1.689-20.674-4.688-25.342-14.842
			c-3.968,12.23,1.995,26.509,13.577,32.193c19.082,9.364,40.294,0.74,47.428-19.281C175.666,53.454,160.542,15.527,130.417,0
			C143.02,9.865,152.591,24.59,156.23,41.97"/>
	</defs>
	<clipPath id="SVGID_8_">
		<use xlink:href="#SVGID_7_"  overflow="visible"/>
	</clipPath>
	
		<linearGradient id="SVGID_9_" gradientUnits="userSpaceOnUse" x1="-20.5107" y1="213.2363" x2="-19.8325" y2="213.2363" gradientTransform="matrix(97.3774 0 0 -97.3774 2099.3633 20821.4375)">
		<stop  offset="0" style="stop-color:#FFBE2A"/>
		<stop  offset="0.3946" style="stop-color:#FDCB22"/>
		<stop  offset="1" style="stop-color:#F9E710"/>
	</linearGradient>
	<rect x="99.292" clip-path="url(#SVGID_8_)" fill="url(#SVGID_9_)" width="76.374" height="114.101"/>
</g>
<g>
	<defs>
		<path id="SVGID_10_" d="M19.678,47.014C31.027,32.63,47.972,21.297,67.977,16.32c25.171-6.262,48.568,6.138,52.312,27.728
			c1.952,11.261-5.379,22.941-17.068,28.636c14.084,3.659,30.52-3.692,37.053-16.718c10.767-21.459,0.819-44.235-22.239-50.924
			c-7.016-2.035-14.281-3.003-21.564-3.004C65.494,2.036,34.131,19.548,19.678,47.014"/>
	</defs>
	<clipPath id="SVGID_11_">
		<use xlink:href="#SVGID_10_"  overflow="visible"/>
	</clipPath>
	
		<linearGradient id="SVGID_12_" gradientUnits="userSpaceOnUse" x1="-20.0449" y1="213.2227" x2="-19.3668" y2="213.2227" gradientTransform="matrix(184.2515 0 0 -184.2515 3712.856 39325.7695)">
		<stop  offset="0" style="stop-color:#00AEC6"/>
		<stop  offset="0" style="stop-color:#0EB0B9"/>
		<stop  offset="0" style="stop-color:#31B696"/>
		<stop  offset="0" style="stop-color:#6BC05F"/>
		<stop  offset="0" style="stop-color:#8CC63F"/>
		<stop  offset="0.1478" style="stop-color:#7FBD3B"/>
		<stop  offset="0.4241" style="stop-color:#5BA631"/>
		<stop  offset="0.796" style="stop-color:#228022"/>
		<stop  offset="1" style="stop-color:#006A18"/>
	</linearGradient>
	<rect x="19.678" y="2.036" clip-path="url(#SVGID_11_)" fill="url(#SVGID_12_)" width="131.363" height="74.306"/>
</g>
<g>
	<defs>
		<path id="SVGID_13_" d="M58.136,21.053C19.912,37.745,0,76.713,13.071,108.702c-2.508-15.946,1.942-33.553,13.985-49.206
			c15.152-19.692,43.955-26.859,64.4-16.021c10.665,5.652,14.214,17.413,9.431,28.263c14.265-6.641,21.521-21.494,16.246-33.574
			c-6.054-13.863-20.695-21.784-37.105-21.785C72.878,16.38,65.395,17.882,58.136,21.053"/>
	</defs>
	<clipPath id="SVGID_14_">
		<use xlink:href="#SVGID_13_"  overflow="visible"/>
	</clipPath>
	
		<linearGradient id="SVGID_15_" gradientUnits="userSpaceOnUse" x1="-20.0234" y1="213.2939" x2="-19.3454" y2="213.2939" gradientTransform="matrix(161.9131 0 0 -161.9131 3251.2156 34597.6953)">
		<stop  offset="0" style="stop-color:#00AEC6"/>
		<stop  offset="0.1751" style="stop-color:#00A0C0"/>
		<stop  offset="0.5044" style="stop-color:#007CB0"/>
		<stop  offset="0.9495" style="stop-color:#004297"/>
		<stop  offset="1" style="stop-color:#003B94"/>
	</linearGradient>
	<rect y="16.38" clip-path="url(#SVGID_14_)" fill="url(#SVGID_15_)" width="122.408" height="92.322"/>
</g>
</svg>
