<?xml version="1.0" encoding="utf-8"?>
<!-- Generator: Adobe Illustrator 13.0.0, SVG Export Plug-In . SVG Version: 6.00 Build 14948)  -->
<!DOCTYPE svg PUBLIC "-//W3C//DTD SVG 1.1//EN" "http://www.w3.org/Graphics/SVG/1.1/DTD/svg11.dtd">
<svg version="1.1" id="Layer_1" xmlns="http://www.w3.org/2000/svg" xmlns:xlink="http://www.w3.org/1999/xlink" x="0px" y="0px"
	 width="748.766px" height="174.569px" viewBox="0 0 748.766 174.569" enable-background="new 0 0 748.766 174.569"
	 xml:space="preserve">
<text transform="matrix(1 0 0 1 294.3008 108.3652)" display="none"><tspan x="0" y="0" display="inline" fill="#B4B4B6" font-family="'advent-Bd1'" font-size="101.865" letter-spacing="-3">T</tspan><tspan x="40.44" y="0" display="inline" fill="#B4B4B6" font-family="'advent-Bd1'" font-size="101.865" letter-spacing="-2">r</tspan><tspan x="71.406" y="0" display="inline" fill="#B4B4B6" font-family="'advent-Bd1'" font-size="101.865">adeRiser</tspan></text>
<text transform="matrix(1 0 0 1 214.3008 118.3652)"><tspan x="0" y="0" fill="#FFFFFF" font-family="'advent-Bd1'" font-size="130.87" letter-spacing="-4">T</tspan><tspan x="51.956" y="0" fill="#FFFFFF" font-family="'advent-Bd1'" font-size="130.87" letter-spacing="-2">r</tspan><tspan x="91.738" y="0" fill="#FFFFFF" font-family="'advent-Bd1'" font-size="130.87">adeRiser</tspan></text>
<g>
	<defs>
		<path id="SVGID_1_" d="M79.086,96.612c-8.162,22.91,2.9,50.118,24.732,60.833c34.894,17.124,73.633,1.755,87.305-34.348
			c-9.286,14.795-23.986,25.371-42.038,28.315c-22.713,3.703-45.332-13.543-50.57-38.562c-2.733-13.052,3.068-25.32,13.386-30.207
			c-3.471-1.582-7.029-2.333-10.479-2.333C91.654,80.31,82.747,86.336,79.086,96.612"/>
	</defs>
	<clipPath id="SVGID_2_">
		<use xlink:href="#SVGID_1_"  overflow="visible"/>
	</clipPath>
	
		<linearGradient id="SVGID_3_" gradientUnits="userSpaceOnUse" x1="-5.1646" y1="216.3203" x2="-4.3892" y2="216.3203" gradientTransform="matrix(147.8677 0 0 -147.8677 840.1971 32114.1211)">
		<stop  offset="0" style="stop-color:#003B94"/>
		<stop  offset="0.0505" style="stop-color:#004297"/>
		<stop  offset="0.4956" style="stop-color:#007CB0"/>
		<stop  offset="0.8249" style="stop-color:#00A0C0"/>
		<stop  offset="1" style="stop-color:#00AEC6"/>
	</linearGradient>
	<rect x="70.924" y="80.31" clip-path="url(#SVGID_2_)" fill="url(#SVGID_3_)" width="120.199" height="94.259"/>
</g>
<g>
	<defs>
		<path id="SVGID_4_" d="M184.135,108.16c-12.355,20.31-38.345,24.549-58.11,9.478c-10.311-7.862-14.558-21.696-11.038-33.368
			c-12.616,5.611-18.087,21.493-12.22,35.924c9.667,23.775,34.652,36.037,55.861,27.413c33.898-13.78,49.055-55.335,34.349-93.425
			C196.607,72.626,193.956,92.017,184.135,108.16"/>
	</defs>
	<clipPath id="SVGID_5_">
		<use xlink:href="#SVGID_4_"  overflow="visible"/>
	</clipPath>
	
		<linearGradient id="SVGID_6_" gradientUnits="userSpaceOnUse" x1="-5.2676" y1="216.2959" x2="-4.4917" y2="216.2959" gradientTransform="matrix(126.5386 0 0 -126.5386 767.0511 27475.0801)">
		<stop  offset="0" style="stop-color:#006A18"/>
		<stop  offset="0.204" style="stop-color:#228022"/>
		<stop  offset="0.5759" style="stop-color:#5BA631"/>
		<stop  offset="0.8522" style="stop-color:#7FBD3B"/>
		<stop  offset="1" style="stop-color:#8CC63F"/>
		<stop  offset="1" style="stop-color:#6BC05F"/>
		<stop  offset="1" style="stop-color:#31B696"/>
		<stop  offset="1" style="stop-color:#0EB0B9"/>
		<stop  offset="1" style="stop-color:#00AEC6"/>
	</linearGradient>
	<rect x="96.899" y="54.181" clip-path="url(#SVGID_5_)" fill="url(#SVGID_6_)" width="110.783" height="102.049"/>
</g>
<g>
	<defs>
		<path id="SVGID_7_" d="M178.758,48.021c5.239,25.019-8.9,48.262-31.613,51.965c-11.849,1.933-23.655-5.362-28.996-16.982
			c-4.54,13.994,2.283,30.332,15.535,36.835c21.833,10.715,46.105,0.847,54.267-22.062C200.997,61.161,183.692,17.766,149.222,0
			C163.643,11.288,174.594,28.136,178.758,48.021"/>
	</defs>
	<clipPath id="SVGID_8_">
		<use xlink:href="#SVGID_7_"  overflow="visible"/>
	</clipPath>
	
		<linearGradient id="SVGID_9_" gradientUnits="userSpaceOnUse" x1="-5.4277" y1="216.1826" x2="-4.6516" y2="216.1826" gradientTransform="matrix(97.3774 0 0 -97.3774 645.3729 21116.5703)">
		<stop  offset="0" style="stop-color:#FFBE2A"/>
		<stop  offset="0.3946" style="stop-color:#FDCB22"/>
		<stop  offset="1" style="stop-color:#F9E710"/>
	</linearGradient>
	<rect x="113.609" clip-path="url(#SVGID_8_)" fill="url(#SVGID_9_)" width="87.387" height="130.554"/>
</g>
<g>
	<defs>
		<path id="SVGID_10_" d="M22.515,53.793c12.986-16.458,32.374-29.425,55.264-35.12c28.801-7.165,55.571,7.023,59.854,31.726
			c2.234,12.884-6.154,26.249-19.529,32.765c16.116,4.187,34.92-4.225,42.396-19.128c12.319-24.554,0.937-50.614-25.446-58.267
			c-8.027-2.329-16.34-3.437-24.673-3.437C74.938,2.33,39.053,22.367,22.515,53.793"/>
	</defs>
	<clipPath id="SVGID_11_">
		<use xlink:href="#SVGID_10_"  overflow="visible"/>
	</clipPath>
	
		<linearGradient id="SVGID_12_" gradientUnits="userSpaceOnUse" x1="-5.0249" y1="216.208" x2="-4.2488" y2="216.208" gradientTransform="matrix(184.2515 0 0 -184.2515 948.2458 39881.5234)">
		<stop  offset="0" style="stop-color:#00AEC6"/>
		<stop  offset="0" style="stop-color:#0EB0B9"/>
		<stop  offset="0" style="stop-color:#31B696"/>
		<stop  offset="0" style="stop-color:#6BC05F"/>
		<stop  offset="0" style="stop-color:#8CC63F"/>
		<stop  offset="0.1478" style="stop-color:#7FBD3B"/>
		<stop  offset="0.4241" style="stop-color:#5BA631"/>
		<stop  offset="0.796" style="stop-color:#228022"/>
		<stop  offset="1" style="stop-color:#006A18"/>
	</linearGradient>
	<rect x="22.515" y="2.33" clip-path="url(#SVGID_11_)" fill="url(#SVGID_12_)" width="150.305" height="85.021"/>
</g>
<g>
	<defs>
		<path id="SVGID_13_" d="M66.52,24.089C22.784,43.188,0,87.775,14.956,124.377c-2.869-18.245,2.222-38.392,16.001-56.301
			c17.337-22.532,50.293-30.732,73.687-18.331c12.203,6.467,16.264,19.924,10.791,32.338c16.322-7.599,24.625-24.593,18.588-38.415
			c-6.927-15.863-23.68-24.925-42.456-24.926C83.387,18.742,74.824,20.461,66.52,24.089"/>
	</defs>
	<clipPath id="SVGID_14_">
		<use xlink:href="#SVGID_13_"  overflow="visible"/>
	</clipPath>
	
		<linearGradient id="SVGID_15_" gradientUnits="userSpaceOnUse" x1="-5.0225" y1="216.2568" x2="-4.2463" y2="216.2568" gradientTransform="matrix(161.9131 0 0 -161.9131 823.6121 35086.4375)">
		<stop  offset="0" style="stop-color:#00AEC6"/>
		<stop  offset="0.1751" style="stop-color:#00A0C0"/>
		<stop  offset="0.5044" style="stop-color:#007CB0"/>
		<stop  offset="0.9495" style="stop-color:#004297"/>
		<stop  offset="1" style="stop-color:#003B94"/>
	</linearGradient>
	<rect y="18.742" clip-path="url(#SVGID_14_)" fill="url(#SVGID_15_)" width="140.059" height="105.635"/>
</g>
</svg>
